<?xml version="1.0" encoding="UTF-8" standalone="no"?>
<!DOCTYPE svg PUBLIC "-//W3C//DTD SVG 1.0//EN" "http://www.w3.org/TR/2001/PR-SVG-20010719/DTD/svg10.dtd">
<svg width="22cm" height="13cm" viewBox="-1 -281 422 253" xmlns="http://www.w3.org/2000/svg" xmlns:xlink="http://www.w3.org/1999/xlink">
  <g>
    <path style="fill: #ffffff" d="M 24.2875 -220 L 121.438,-220 C 134.851,-220 145.725,-211.046 145.725,-200 C 145.725,-188.954 134.851,-180 121.438,-180 L 24.2875,-180 C 10.8739,-180 0,-188.954 0,-200 C 0,-211.046 10.8739,-220 24.2875,-220z"/>
    <path style="fill: none; fill-opacity:0; stroke-width: 2; stroke: #000000" d="M 24.2875 -220 L 121.438,-220 C 134.851,-220 145.725,-211.046 145.725,-200 C 145.725,-188.954 134.851,-180 121.438,-180 L 24.2875,-180 C 10.8739,-180 0,-188.954 0,-200 C 0,-211.046 10.8739,-220 24.2875,-220"/>
    <text style="fill: #000000;text-anchor:middle;font-size:12.7998;font-family:sanserif;font-style:normal;font-weight:normal" x="72.8625" y="-204">
      <tspan x="72.8625" y="-204">Como posso</tspan>
      <tspan x="72.8625" y="-188">ir para</tspan>
    </text>
  </g>
  <g>
    <path style="fill: #ffffff" d="M 206.225 -280 L 273.775,-280 C 283.102,-280 290.662,-271.046 290.662,-260 C 290.662,-248.954 283.102,-240 273.775,-240 L 206.225,-240 C 196.898,-240 189.337,-248.954 189.337,-260 C 189.337,-271.046 196.898,-280 206.225,-280z"/>
    <path style="fill: none; fill-opacity:0; stroke-width: 2; stroke: #000000" d="M 206.225 -280 L 273.775,-280 C 283.102,-280 290.662,-271.046 290.662,-260 C 290.662,-248.954 283.102,-240 273.775,-240 L 206.225,-240 C 196.898,-240 189.337,-248.954 189.337,-260 C 189.337,-271.046 196.898,-280 206.225,-280"/>
    <text style="fill: #000000;text-anchor:middle;font-size:12.7998;font-family:sanserif;font-style:normal;font-weight:normal" x="240" y="-256">
      <tspan x="240" y="-256">casa</tspan>
    </text>
  </g>
  <g>
    <path style="fill: #ffffff" d="M 199.45 -220 L 277.25,-220 C 287.992,-220 296.7,-211.046 296.7,-200 C 296.7,-188.954 287.992,-180 277.25,-180 L 199.45,-180 C 188.708,-180 180,-188.954 180,-200 C 180,-211.046 188.708,-220 199.45,-220z"/>
    <path style="fill: none; fill-opacity:0; stroke-width: 2; stroke: #000000" d="M 199.45 -220 L 277.25,-220 C 287.992,-220 296.7,-211.046 296.7,-200 C 296.7,-188.954 287.992,-180 277.25,-180 L 199.45,-180 C 188.708,-180 180,-188.954 180,-200 C 180,-211.046 188.708,-220 199.45,-220"/>
    <text style="fill: #000000;text-anchor:middle;font-size:12.7998;font-family:sanserif;font-style:normal;font-weight:normal" x="238.35" y="-196">
      <tspan x="238.35" y="-196">o escritório</tspan>
    </text>
  </g>
  <g>
    <path style="fill: #ffffff" d="M 199.15 -160 L 275.75,-160 C 286.326,-160 294.9,-151.046 294.9,-140 C 294.9,-128.954 286.326,-120 275.75,-120 L 199.15,-120 C 188.574,-120 180,-128.954 180,-140 C 180,-151.046 188.574,-160 199.15,-160z"/>
    <path style="fill: none; fill-opacity:0; stroke-width: 2; stroke: #000000" d="M 199.15 -160 L 275.75,-160 C 286.326,-160 294.9,-151.046 294.9,-140 C 294.9,-128.954 286.326,-120 275.75,-120 L 199.15,-120 C 188.574,-120 180,-128.954 180,-140 C 180,-151.046 188.574,-160 199.15,-160"/>
    <text style="fill: #000000;text-anchor:middle;font-size:12.7998;font-family:sanserif;font-style:normal;font-weight:normal" x="237.45" y="-136">
      <tspan x="237.45" y="-136">o shopping</tspan>
    </text>
  </g>
  <g>
    <path style="fill: #ffffff" d="M 386.667 -220 L 413.333,-220 C 417.015,-220 420,-211.046 420,-200 C 420,-188.954 417.015,-180 413.333,-180 L 386.667,-180 C 382.985,-180 380,-188.954 380,-200 C 380,-211.046 382.985,-220 386.667,-220z"/>
    <path style="fill: none; fill-opacity:0; stroke-width: 2; stroke: #000000" d="M 386.667 -220 L 413.333,-220 C 417.015,-220 420,-211.046 420,-200 C 420,-188.954 417.015,-180 413.333,-180 L 386.667,-180 C 382.985,-180 380,-188.954 380,-200 C 380,-211.046 382.985,-220 386.667,-220"/>
    <text style="fill: #000000;text-anchor:middle;font-size:12.7998;font-family:sanserif;font-style:normal;font-weight:normal" x="400" y="-196">
      <tspan x="400" y="-196">?</tspan>
    </text>
  </g>
  <g>
    <line style="fill: none; fill-opacity:0; stroke-width: 2; stroke: #000000" x1="128.194" y1="-179.829" x2="179.431" y2="-161.151"/>
    <polygon style="fill: #000000" points="186.477,-158.582 175.37,-157.309 179.431,-161.151 178.795,-166.705 "/>
    <polygon style="fill: none; fill-opacity:0; stroke-width: 2; stroke: #000000" points="186.477,-158.582 175.37,-157.309 179.431,-161.151 178.795,-166.705 "/>
  </g>
  <g>
    <line style="fill: none; fill-opacity:0; stroke-width: 2; stroke: #000000" x1="145.718" y1="-200" x2="170.263" y2="-200"/>
    <polygon style="fill: #000000" points="177.763,-200 167.763,-195 170.263,-200 167.763,-205 "/>
    <polygon style="fill: none; fill-opacity:0; stroke-width: 2; stroke: #000000" points="177.763,-200 167.763,-195 170.263,-200 167.763,-205 "/>
  </g>
  <g>
    <line style="fill: none; fill-opacity:0; stroke-width: 2; stroke: #000000" x1="128.786" y1="-220.076" x2="185.737" y2="-240.52"/>
    <polygon style="fill: #000000" points="192.796,-243.054 185.073,-234.97 185.737,-240.52 181.694,-244.382 "/>
    <polygon style="fill: none; fill-opacity:0; stroke-width: 2; stroke: #000000" points="192.796,-243.054 185.073,-234.97 185.737,-240.52 181.694,-244.382 "/>
  </g>
  <g>
    <path style="fill: #ffffff" d="M 226.667 -100 L 253.333,-100 C 257.015,-100 260,-84.33 260,-65 C 260,-45.67 257.015,-30 253.333,-30 L 226.667,-30 C 222.985,-30 220,-45.67 220,-65 C 220,-84.33 222.985,-100 226.667,-100z"/>
    <path style="fill: none; fill-opacity:0; stroke-width: 2; stroke: #000000" d="M 226.667 -100 L 253.333,-100 C 257.015,-100 260,-84.33 260,-65 C 260,-45.67 257.015,-30 253.333,-30 L 226.667,-30 C 222.985,-30 220,-45.67 220,-65 C 220,-84.33 222.985,-100 226.667,-100"/>
    <text style="fill: #000000;text-anchor:middle;font-size:12.7998;font-family:sanserif;font-style:normal;font-weight:normal" x="240" y="-77">
      <tspan x="240" y="-77">.</tspan>
      <tspan x="240" y="-61">.</tspan>
      <tspan x="240" y="-45">.</tspan>
    </text>
  </g>
  <g>
    <line style="fill: none; fill-opacity:0; stroke-width: 2; stroke: #000000" x1="98.8655" y1="-178.997" x2="212.513" y2="-87.2016"/>
    <polygon style="fill: #000000" points="218.348,-82.489 207.427,-84.8829 212.513,-87.2016 213.71,-92.6622 "/>
    <polygon style="fill: none; fill-opacity:0; stroke-width: 2; stroke: #000000" points="218.348,-82.489 207.427,-84.8829 212.513,-87.2016 213.71,-92.6622 "/>
  </g>
  <g>
    <line style="fill: none; fill-opacity:0; stroke-width: 2; stroke: #000000" x1="260.078" y1="-81.9409" x2="374.019" y2="-178.078"/>
    <polygon style="fill: #000000" points="379.751,-182.915 375.332,-172.645 374.019,-178.078 368.884,-180.288 "/>
    <polygon style="fill: none; fill-opacity:0; stroke-width: 2; stroke: #000000" points="379.751,-182.915 375.332,-172.645 374.019,-178.078 368.884,-180.288 "/>
  </g>
  <g>
    <line style="fill: none; fill-opacity:0; stroke-width: 2; stroke: #000000" x1="286.064" y1="-157.944" x2="370.379" y2="-189.066"/>
    <polygon style="fill: #000000" points="377.415,-191.663 369.765,-183.51 370.379,-189.066 366.302,-192.891 "/>
    <polygon style="fill: none; fill-opacity:0; stroke-width: 2; stroke: #000000" points="377.415,-191.663 369.765,-183.51 370.379,-189.066 366.302,-192.891 "/>
  </g>
  <g>
    <line style="fill: none; fill-opacity:0; stroke-width: 2; stroke: #000000" x1="296.699" y1="-200" x2="370.275" y2="-200"/>
    <polygon style="fill: #000000" points="377.775,-200 367.775,-195 370.275,-200 367.775,-205 "/>
    <polygon style="fill: none; fill-opacity:0; stroke-width: 2; stroke: #000000" points="377.775,-200 367.775,-195 370.275,-200 367.775,-205 "/>
  </g>
  <g>
    <line style="fill: none; fill-opacity:0; stroke-width: 2; stroke: #000000" x1="284.58" y1="-243.282" x2="370.405" y2="-211.098"/>
    <polygon style="fill: #000000" points="377.428,-208.465 366.309,-207.294 370.405,-211.098 369.82,-216.657 "/>
    <polygon style="fill: none; fill-opacity:0; stroke-width: 2; stroke: #000000" points="377.428,-208.465 366.309,-207.294 370.405,-211.098 369.82,-216.657 "/>
  </g>
</svg>
